<?xml version="1.0" encoding="utf-8"?>
<!-- Generator: Adobe Illustrator 16.0.3, SVG Export Plug-In . SVG Version: 6.00 Build 0)  -->
<!DOCTYPE svg PUBLIC "-//W3C//DTD SVG 1.1//EN" "http://www.w3.org/Graphics/SVG/1.1/DTD/svg11.dtd">
<svg version="1.1" id="Ebene_1" xmlns="http://www.w3.org/2000/svg" xmlns:xlink="http://www.w3.org/1999/xlink" x="0px" y="0px"
	 width="30.002px" height="30px" viewBox="0 0 30.002 30" enable-background="new 0 0 30.002 30" xml:space="preserve">
<g>
	<path fill="#FFFFFF" d="M0.199,10.951c0.063-0.429,0.145-0.852,0.25-1.266C0.344,10.103,0.261,10.524,0.199,10.951z"/>
	<path fill="#FFFFFF" d="M0.056,12.759c0,0.011,0.001,0.021,0.001,0.032c0-0.073,0.006-0.145,0.008-0.218
		C0.063,12.635,0.056,12.695,0.056,12.759z"/>
	<path fill="#FFFFFF" d="M0.104,11.783c0.015-0.191,0.032-0.383,0.056-0.572C0.136,11.401,0.118,11.592,0.104,11.783z"/>
	<g>
		<path fill="#FFFFFF" d="M29.342,26.099l-5.949-5.941c-0.887,1.265-1.995,2.367-3.271,3.241l5.944,5.909
			C26.508,29.771,27.054,30,27.703,30c0.609,0,1.145-0.229,1.607-0.692c0.462-0.44,0.691-0.975,0.691-1.605
			C30.002,27.075,29.783,26.539,29.342,26.099z"/>
		<path fill="#FFFFFF" d="M21.952,3.765C19.529,1.343,16.31,0,12.888,0C10.232,0,7.76,0.814,5.709,2.204
			C5.49,2.352,5.278,2.507,5.07,2.667c-2.208,1.702-3.847,4.105-4.583,6.87C0.475,9.586,0.462,9.636,0.449,9.685
			c-0.105,0.415-0.188,0.837-0.25,1.266c-0.014,0.087-0.029,0.173-0.04,0.26c-0.023,0.189-0.041,0.381-0.056,0.572
			c-0.021,0.262-0.062,0.524-0.067,0.79C0.034,12.646,0,12.717,0,12.791c0,0.01,0,0.021,0,0.031c0,7.062,5.792,12.823,12.859,12.823
			c2.684,0,5.187-0.831,7.248-2.246c1.275-0.874,2.398-1.977,3.285-3.241c1.464-2.082,2.33-4.609,2.33-7.335
			C25.723,9.403,24.378,6.187,21.952,3.765z M18.515,18.312c-1.284,1.715-3.327,2.835-5.626,2.835c-1.615,0-3.101-0.556-4.289-1.476
			c-1.661-1.286-2.738-3.293-2.738-5.547c0-3.276,2.199-5.474,4.134-7.407c0.659-0.657,1.303-1.305,1.828-1.965
			c0.499-0.628,0.887-1.269,1.065-1.942c0.184,0.692,0.582,1.35,1.096,1.995c0.514,0.642,1.145,1.272,1.797,1.913
			c1.937,1.934,4.137,4.131,4.137,7.407C19.918,15.694,19.392,17.14,18.515,18.312z"/>
	</g>
</g>
<g>
</g>
<g>
</g>
<g>
</g>
<g>
</g>
<g>
</g>
<g>
</g>
<g>
</g>
<g>
</g>
<g>
</g>
<g>
</g>
<g>
</g>
<g>
</g>
<g>
</g>
<g>
</g>
<g>
</g>
</svg>
